<?xml version="1.0" standalone="no"?>
<!DOCTYPE svg PUBLIC "-//W3C//DTD SVG 20010904//EN"
 "http://www.w3.org/TR/2001/REC-SVG-20010904/DTD/svg10.dtd">
<svg version="1.0" xmlns="http://www.w3.org/2000/svg"
 width="512.000000pt" height="512.000000pt" viewBox="0 0 512.000000 512.000000"
 preserveAspectRatio="xMidYMid meet">
<metadata>
Created by potrace 1.14, written by Peter Selinger 2001-2017
</metadata>
<g transform="translate(0.000000,512.000000) scale(0.100000,-0.100000)"
fill="#000000" stroke="none">
<path d="M2330 5099 c-124 -14 -165 -19 -190 -24 -14 -2 -36 -7 -50 -10 -14
-2 -38 -7 -55 -10 -135 -22 -393 -109 -564 -191 -289 -138 -481 -274 -711
-504 -339 -338 -547 -705 -678 -1195 -18 -66 -43 -220 -61 -370 -23 -199 -4
-535 45 -759 39 -180 53 -227 136 -451 7 -16 43 -93 82 -170 80 -160 201 -346
310 -479 81 -98 250 -267 331 -331 27 -22 59 -48 70 -59 25 -23 286 -194 340
-223 22 -11 69 -36 105 -55 214 -113 571 -215 860 -247 110 -11 410 -11 520 0
345 38 739 164 990 317 19 12 42 25 50 28 33 15 239 160 315 222 91 74 267
248 341 337 387 467 591 1032 591 1635 0 169 -19 386 -42 470 -2 8 -6 31 -9
52 -9 62 -65 256 -102 357 -39 103 -140 326 -160 351 -15 19 -45 78 -43 86 0
4 -3 10 -8 13 -14 9 -73 98 -73 109 0 6 -4 12 -8 14 -5 2 -28 30 -52 63 -24
33 -46 62 -50 65 -3 3 -21 25 -40 50 -19 25 -89 99 -155 166 -102 103 -150
146 -265 238 -9 6 -38 27 -65 46 -28 19 -51 37 -53 42 -2 4 -7 8 -12 8 -5 0
-46 23 -92 52 -222 138 -506 250 -793 313 -206 46 -558 66 -755 44z"/>
</g>
</svg>
